<svg width="16.000000" height="16.000000" viewBox="0 0 16 16" fill="none" xmlns="http://www.w3.org/2000/svg" xmlns:xlink="http://www.w3.org/1999/xlink">
	<desc>
			Created with Pixso.
	</desc>
	<defs/>
	<path id="Vector" d="M4.29 0C1.75 0 -0.34 2.08 -0.34 4.62L-0.34 11.11C-0.34 13.65 1.75 15.74 4.29 15.74L10.77 15.74C13.31 15.74 15.4 13.65 15.4 11.11L15.4 4.62C15.4 2.08 13.32 0 10.77 0L4.29 0ZM4.29 1.43L10.77 1.43C11.19 1.43 11.61 1.51 12 1.67C12.39 1.83 12.74 2.06 13.04 2.36C13.33 2.66 13.57 3.01 13.73 3.4C13.89 3.79 13.97 4.2 13.97 4.62L13.97 11.11C13.97 11.53 13.89 11.94 13.73 12.33C13.57 12.72 13.33 13.07 13.04 13.37C12.74 13.67 12.39 13.9 12 14.06C11.61 14.22 11.19 14.31 10.77 14.31L4.29 14.31C3.87 14.31 3.45 14.22 3.07 14.06C2.68 13.9 2.32 13.67 2.03 13.37C1.73 13.07 1.5 12.72 1.33 12.33C1.17 11.94 1.09 11.53 1.09 11.11L1.09 4.62C1.09 4.2 1.17 3.79 1.33 3.4C1.49 3.01 1.73 2.66 2.03 2.36C2.32 2.06 2.68 1.83 3.07 1.67C3.45 1.51 3.87 1.43 4.29 1.43ZM11.76 2.99C11.67 2.99 11.59 3.01 11.51 3.04C11.43 3.07 11.36 3.12 11.3 3.18C11.24 3.24 11.19 3.31 11.16 3.39C11.13 3.47 11.11 3.55 11.11 3.64C11.11 4 11.4 4.29 11.76 4.29C11.84 4.29 11.93 4.27 12.01 4.24C12.09 4.21 12.16 4.16 12.22 4.1C12.28 4.04 12.33 3.97 12.36 3.89C12.39 3.81 12.41 3.73 12.41 3.64C12.41 3.55 12.39 3.47 12.36 3.39C12.33 3.31 12.28 3.24 12.22 3.18C12.16 3.12 12.09 3.07 12.01 3.04C11.93 3.01 11.84 2.99 11.76 2.99ZM7.53 3.57C5.17 3.57 3.24 5.5 3.24 7.87C3.24 10.23 5.17 12.16 7.53 12.16C9.89 12.16 11.83 10.23 11.83 7.87C11.83 5.5 9.89 3.57 7.53 3.57ZM7.53 5C9.12 5 10.39 6.28 10.39 7.87C10.39 9.46 9.12 10.73 7.53 10.73C5.94 10.73 4.67 9.46 4.67 7.87C4.67 6.28 5.94 5 7.53 5Z" fill="#FFFFFF" fill-opacity="1.000000" fill-rule="nonzero"/>
</svg>
