<svg width="15.000000" height="20.000000" viewBox="0 0 15 20" fill="none" xmlns="http://www.w3.org/2000/svg" xmlns:xlink="http://www.w3.org/1999/xlink">
	<desc>
			Created with Pixso.
	</desc>
	<defs/>
	<path id="Vector" d="M3.98 0.1C4.51 -0.06 5.09 -0.04 5.61 0.18C6.13 0.39 6.56 0.78 6.83 1.28L6.93 1.47L7.74 3.31C7.99 3.87 8.07 4.49 7.97 5.09C7.87 5.7 7.6 6.26 7.2 6.71L7.03 6.87L5.75 8.09C5.52 8.31 5.69 9.17 6.53 10.65C7.28 11.97 7.89 12.59 8.19 12.62L8.25 12.62L8.31 12.61L10.83 11.83C11.17 11.72 11.53 11.72 11.87 11.82C12.21 11.91 12.52 12.11 12.75 12.38L12.86 12.52L14.53 14.87C14.86 15.33 15.02 15.9 14.99 16.46C14.96 17.03 14.75 17.57 14.38 18L14.23 18.15L13.56 18.8C12.96 19.37 12.22 19.76 11.41 19.92C10.6 20.07 9.76 19.99 9 19.68C6.62 18.7 4.46 16.47 2.5 13.02C0.53 9.55 -0.29 6.53 0.08 3.94C0.19 3.16 0.51 2.42 1 1.81C1.48 1.19 2.13 0.72 2.86 0.45L3.09 0.37L3.98 0.1Z" fill="#FFFFFF" fill-opacity="1.000000" fill-rule="nonzero"/>
</svg>
